<?xml version="1.0" standalone="no"?>
<!DOCTYPE svg PUBLIC "-//W3C//DTD SVG 20010904//EN"
 "http://www.w3.org/TR/2001/REC-SVG-20010904/DTD/svg10.dtd">
<svg version="1.0" xmlns="http://www.w3.org/2000/svg"
 width="425.000000pt" height="425.000000pt" viewBox="0 0 425.000000 425.000000"
 preserveAspectRatio="xMidYMid meet">
<metadata>
Created by potrace 1.14, written by Peter Selinger 2001-2017
</metadata>
<g transform="translate(0.000000,425.000000) scale(0.100000,-0.100000)"
fill="#000000" stroke="none">
<path d="M1935 4209 c-705 -65 -1350 -502 -1666 -1129 -116 -231 -185 -447
-220 -690 -18 -126 -16 -453 5 -580 101 -640 485 -1189 1060 -1514 322 -182
644 -266 1026 -266 190 0 273 9 445 50 389 92 723 277 1009 558 182 178 298
340 415 576 126 256 192 501 211 786 24 362 -43 694 -210 1035 -116 236 -221
387 -390 556 -277 279 -585 457 -968 560 -202 54 -500 79 -717 58z m11 -241
c73 -50 74 -61 45 -566 -22 -371 -23 -374 -106 -406 -172 -65 -329 -165 -414
-261 -60 -69 -129 -184 -161 -268 -46 -123 -57 -145 -83 -162 -29 -18 -113
-29 -417 -50 -124 -9 -265 -20 -314 -24 -52 -5 -103 -5 -123 1 -48 13 -93 56
-102 100 -22 98 75 442 187 665 88 173 259 391 422 536 200 180 469 329 725
403 204 59 290 67 341 32z m338 -12 c-10 -8 -21 -12 -24 -10 -5 6 21 24 34 24
6 0 1 -6 -10 -14z m-36 -23 c-1 -5 4 -18 11 -31 7 -13 10 -31 6 -40 -6 -16 0
-126 31 -533 17 -237 17 -219 -1 -219 -7 0 -18 -7 -23 -17 -7 -11 -12 12 -16
78 -4 52 -16 205 -27 341 -26 334 -26 370 -6 402 17 25 29 34 25 19z m472 -33
c0 -5 -7 -7 -15 -4 -8 4 -15 8 -15 10 0 2 7 4 15 4 8 0 15 -4 15 -10z m355
-160 c3 -5 2 -10 -4 -10 -5 0 -13 5 -16 10 -3 6 -2 10 4 10 5 0 13 -4 16 -10z
m185 -126 c0 -9 -37 15 -51 33 -10 12 -5 11 19 -6 17 -12 32 -24 32 -27z m192
-166 c163 -161 262 -297 361 -494 91 -182 160 -412 161 -537 l1 -78 -39 -35
c-21 -19 -46 -34 -55 -34 -13 1 -12 3 4 12 22 12 55 44 55 53 0 3 -4 4 -9 1
-4 -3 -11 32 -14 77 -6 75 -49 249 -92 367 -48 131 -210 417 -282 495 -10 11
-31 38 -48 60 -16 22 -44 56 -62 75 -20 22 -28 37 -21 41 7 5 -11 29 -46 63
-32 31 -54 56 -48 56 6 0 66 -55 134 -122z m-2867 27 c-30 -36 -72 -91 -92
-123 -21 -31 -42 -60 -48 -64 -5 -4 -6 -8 -2 -8 4 0 -1 -9 -11 -20 -10 -11
-62 -105 -114 -210 -53 -104 -98 -183 -101 -176 -20 52 188 422 307 549 26 27
46 50 46 52 0 7 55 65 62 65 5 0 -16 -29 -47 -65z m2795 0 c7 -9 8 -15 2 -15
-5 0 -12 7 -16 15 -3 8 -4 15 -2 15 2 0 9 -7 16 -15z m-2770 -75 c0 -5 -8 -18
-17 -28 -25 -25 -134 -186 -173 -255 -17 -31 -29 -64 -26 -72 3 -8 0 -14 -7
-12 -13 2 -76 -119 -123 -237 -16 -38 -30 -63 -32 -57 -5 15 60 185 106 276
57 114 158 267 244 367 26 31 28 32 28 18z m3191 -57 c13 -16 12 -17 -3 -4
-17 13 -22 21 -14 21 2 0 10 -8 17 -17z m49 -57 c0 -3 -4 -8 -10 -11 -5 -3
-10 -1 -10 4 0 6 5 11 10 11 6 0 10 -2 10 -4z m53 -88 c116 -189 217 -425 248
-583 38 -193 58 -365 42 -365 -6 0 -13 30 -17 66 -9 92 -49 268 -90 404 -44
143 -97 270 -175 420 -57 109 -66 130 -57 130 2 0 24 -33 49 -72z m-25 -143
c-3 -3 -9 2 -12 12 -6 14 -5 15 5 6 7 -7 10 -15 7 -18z m62 -115 c27 -55 56
-121 64 -147 8 -27 28 -84 44 -129 34 -92 68 -282 53 -297 -6 -6 -12 5 -16 29
-29 182 -91 390 -168 562 -20 45 -34 82 -32 82 3 0 27 -45 55 -100z m-3722
-105 c-3 -3 -9 2 -12 12 -6 14 -5 15 5 6 7 -7 10 -15 7 -18z m-27 -28 c-10 -9
-11 -8 -5 6 3 10 9 15 12 12 3 -3 0 -11 -7 -18z m2329 -63 c36 -15 73 -33 83
-40 18 -12 18 -12 -3 -19 -15 -5 -29 -1 -43 13 -12 11 -47 34 -77 52 -61 36
-55 35 40 -6z m159 -111 c-6 -7 -8 -13 -4 -13 5 0 5 -3 2 -7 -8 -7 -47 25 -47
39 0 4 7 8 15 8 8 0 15 6 15 13 0 7 7 4 15 -7 11 -14 12 -23 4 -33z m-365 -29
c9 -23 7 -52 -3 -58 -4 -3 -6 5 -4 18 3 13 0 27 -6 30 -13 9 -15 26 -2 26 5 0
12 -7 15 -16z m-447 -36 c-3 -8 -6 -5 -6 6 -1 11 2 17 5 13 3 -3 4 -12 1 -19z
m581 -180 c16 -16 16 -194 1 -204 -17 -10 -134 -17 -163 -10 l-27 7 3 102 3
102 75 6 c41 3 80 6 86 7 5 1 15 -3 22 -10z m222 -3 c6 -3 10 -49 10 -106 l0
-99 -30 0 -30 0 0 84 c0 90 -11 113 -50 101 -18 -6 -20 -14 -20 -96 l0 -89
-33 0 -32 0 -3 102 c-2 67 1 104 8 108 14 8 165 4 180 -5z m-812 -107 l3 -108
-36 0 -35 0 -1 53 c0 28 -2 75 -3 102 -3 63 -1 67 37 63 l32 -3 3 -107z m237
102 c6 0 33 2 60 6 37 4 54 2 62 -8 7 -7 13 -55 14 -108 l2 -95 -36 -3 -36 -3
-3 93 c-3 92 -3 93 -28 93 -25 0 -25 -1 -28 -92 l-3 -93 -39 0 -39 0 -3 93
c-3 91 -3 92 -28 92 -25 0 -25 -1 -28 -92 l-3 -93 -34 0 -35 0 0 109 0 110 98
-5 c53 -2 102 -4 107 -4z m-337 -37 c3 -31 1 -33 -27 -33 -24 0 -32 5 -37 25
-11 44 -79 29 -72 -16 3 -21 9 -24 48 -27 89 -5 91 -6 88 -65 l-3 -52 -95 0
-95 0 0 30 c0 25 4 30 28 33 22 3 27 -1 27 -18 0 -18 5 -21 38 -18 32 3 37 6
37 28 0 23 -4 25 -45 28 -87 5 -90 7 -90 61 0 26 3 51 7 55 4 4 48 5 98 4 l90
-3 3 -32z m1031 -28 c0 -5 -4 -3 -9 5 -5 8 -9 22 -9 30 0 16 17 -16 18 -35z
m1408 -112 c-3 -10 -5 -4 -5 12 0 17 2 24 5 18 2 -7 2 -21 0 -30z m-250 -185
c50 -50 53 -103 18 -263 -157 -724 -696 -1270 -1425 -1444 -168 -40 -211 -38
-264 17 -38 40 -43 72 -35 207 4 66 13 244 19 395 9 193 16 283 26 302 18 35
58 65 97 73 18 4 73 27 122 51 217 105 358 263 447 502 34 94 49 117 88 137
16 8 136 21 320 34 162 12 318 23 345 25 28 2 85 3 127 2 76 -1 79 -2 115 -38z
m-3102 -4 c182 -8 345 -19 362 -25 42 -13 61 -43 103 -154 65 -169 188 -322
337 -419 74 -48 112 -66 217 -102 131 -45 121 -8 161 -554 23 -311 22 -385 -2
-418 -31 -43 -82 -72 -123 -72 -138 0 -428 88 -632 192 -190 97 -336 206 -500
377 -246 253 -411 571 -483 926 -28 139 -24 171 26 223 38 39 76 50 149 45 30
-2 204 -10 385 -19z"/>
<path d="M3450 3416 c0 -2 8 -10 18 -17 15 -13 16 -12 3 4 -13 16 -21 21 -21
13z"/>
<path d="M2343 2363 c-9 -3 -13 -29 -13 -78 0 -67 2 -74 22 -81 31 -9 48 19
48 82 0 65 -20 92 -57 77z"/>
<path d="M2984 1613 c-16 -3 -20 -10 -16 -29 5 -29 22 -32 22 -4 0 28 30 38
46 15 8 -10 17 -15 21 -12 7 8 -27 37 -42 35 -5 0 -19 -3 -31 -5z"/>
<path d="M2916 1525 c4 -8 8 -15 10 -15 2 0 4 7 4 15 0 8 -4 15 -10 15 -5 0
-7 -7 -4 -15z"/>
<path d="M2760 1515 c-7 -9 -11 -18 -8 -20 3 -3 11 1 18 10 7 9 11 18 8 20 -3
3 -11 -1 -18 -10z"/>
<path d="M2809 1416 c-66 -65 -74 -76 -58 -76 22 0 77 52 89 84 9 25 12 27 27
15 14 -12 16 -12 12 0 -9 27 -25 22 -70 -23z"/>
<path d="M2687 1324 c-3 -4 1 -13 9 -22 14 -13 17 -13 25 -1 5 8 9 19 9 24 0
6 -5 3 -10 -5 -6 -10 -10 -11 -10 -2 0 13 -13 16 -23 6z"/>
<path d="M2666 1263 c7 -21 13 -45 14 -54 0 -9 7 -22 15 -29 8 -7 15 -24 15
-39 0 -14 7 -39 15 -55 8 -15 15 -35 15 -43 0 -8 5 -11 10 -8 6 4 10 -9 11
-32 l1 -38 10 39 c7 25 7 41 1 45 -6 3 -13 26 -17 50 -4 24 -14 57 -23 75 -10
17 -16 36 -15 42 1 6 -5 17 -13 24 -8 7 -15 20 -15 30 0 14 -18 30 -35 30 -1
0 3 -17 11 -37z"/>
<path d="M3146 1215 c-3 -8 -1 -15 4 -15 6 0 10 7 10 15 0 8 -2 15 -4 15 -2 0
-6 -7 -10 -15z"/>
<path d="M2391 1204 c0 -11 3 -14 6 -6 3 7 2 16 -1 19 -3 4 -6 -2 -5 -13z"/>
<path d="M3055 1131 c-3 -5 -1 -12 5 -16 12 -7 30 2 30 16 0 12 -27 12 -35 0z"/>
<path d="M3031 1125 c0 -6 -39 -40 -86 -75 -46 -36 -85 -68 -85 -72 -1 -20 42
-4 76 27 20 19 40 35 44 35 17 0 61 60 57 77 -3 10 -5 13 -6 8z"/>
<path d="M2787 979 c-6 -22 23 -33 69 -26 22 3 17 5 -16 6 -25 2 -39 5 -32 8
16 6 15 20 -2 26 -8 3 -16 -2 -19 -14z"/>
<path d="M2648 483 c7 -3 16 -2 19 1 4 3 -2 6 -13 5 -11 0 -14 -3 -6 -6z"/>
<path d="M2720 460 c0 -5 4 -10 9 -10 6 0 13 5 16 10 3 6 -1 10 -9 10 -9 0
-16 -4 -16 -10z"/>
<path d="M2306 397 c3 -10 9 -15 12 -12 3 3 0 11 -7 18 -10 9 -11 8 -5 -6z"/>
</g>
</svg>
